<?xml version="1.0" standalone="no"?>
<!DOCTYPE svg PUBLIC "-//W3C//DTD SVG 20010904//EN"
 "http://www.w3.org/TR/2001/REC-SVG-20010904/DTD/svg10.dtd">
<svg version="1.0" xmlns="http://www.w3.org/2000/svg"
 width="700.000000pt" height="700.000000pt" viewBox="0 0 700.000000 700.000000"
 preserveAspectRatio="xMidYMid meet">
<metadata>
Created by potrace 1.14, written by Peter Selinger 2001-2017
</metadata>
<g transform="translate(0.000000,700.000000) scale(0.100000,-0.100000)"
fill="#000000" stroke="none">
<path d="M3355 6993 c-11 -2 -54 -10 -97 -19 -383 -73 -715 -335 -882 -695
-48 -105 -91 -248 -105 -354 -9 -71 -7 -310 3 -355 4 -14 9 -38 11 -55 18 -99
101 -310 158 -400 189 -300 474 -497 820 -570 l27 -5 0 -443 -1 -442 -62 -45
c-34 -25 -167 -122 -295 -215 -129 -94 -250 -182 -270 -196 -21 -14 -196 -141
-390 -282 l-352 -256 -96 50 c-142 74 -280 119 -419 137 -68 9 -266 9 -340 -1
-66 -8 -221 -48 -281 -73 -269 -109 -519 -335 -642 -579 -53 -106 -84 -183
-97 -241 -2 -10 -11 -50 -20 -89 -25 -105 -27 -336 -5 -460 130 -730 857
-1178 1575 -970 113 33 224 86 335 161 276 185 459 461 526 794 18 91 24 292
11 395 -23 179 -100 377 -211 546 l-24 35 315 230 c306 222 486 353 744 539
68 49 130 95 137 102 7 7 17 13 21 13 4 0 17 9 28 20 l21 19 100 -72 c141
-102 140 -102 212 -154 36 -27 130 -95 210 -153 80 -57 150 -108 155 -113 6
-4 141 -103 300 -218 160 -116 289 -214 288 -219 -2 -5 -23 -41 -49 -80 -69
-107 -141 -277 -160 -377 -2 -13 -7 -35 -10 -50 -14 -70 -21 -167 -18 -263 2
-94 6 -136 20 -204 2 -11 7 -34 10 -51 20 -111 93 -274 180 -406 192 -288 515
-490 859 -536 64 -9 255 -9 320 -1 422 55 777 311 960 692 93 194 125 350 120
571 -6 253 -67 444 -212 664 -187 281 -517 485 -858 529 -68 9 -278 9 -340 0
-122 -18 -352 -94 -415 -138 -14 -10 -40 -25 -58 -34 -34 -18 -37 -17 -117 47
-5 4 -158 116 -340 247 -181 132 -339 246 -350 254 -11 8 -51 37 -90 65 -38
28 -77 56 -86 63 -10 7 -107 78 -218 158 l-201 145 0 442 0 441 69 16 c328 75
613 285 789 581 44 74 99 197 114 255 19 70 38 156 45 205 9 61 10 273 1 335
-36 258 -161 511 -341 694 -90 90 -140 131 -242 193 -197 121 -380 173 -625
177 -80 2 -154 1 -165 -1z"/>
</g>
</svg>
